<svg height="100" viewBox="0 0 100 100" width="100" xmlns="http://www.w3.org/2000/svg"><svg enable-background="new 0 0 100 100" transform="matrix(.69 0 0 .69 15.5 15.5)" version="1.1" viewBox="0 0 100 100" xmlns="http://www.w3.org/2000/svg" xmlns:xlink="http://www.w3.org/1999/xlink"><path fill="#2bbbae" d="m92.6 66.8v-5-3.2-9.2-25.7c0-4.7-3.8-8.5-8.5-8.5h-31.7-36.5c-4.7 0-8.5 3.8-8.5 8.5v34.9 1.9 6.3c0 1.1-.4 2.2-1.1 3l-4.3 5.3c-.3.4-.5.9-.5 1.4v2.5c0 3.2 2.6 5.8 5.8 5.8h85.6c3.2 0 5.8-2.6 5.8-5.8v-2.5c0-.5-.2-1-.5-1.4l-4.3-5.3c-.9-.8-1.3-1.9-1.3-3zm-33.4 9.6c0 1.6-1.3 2.9-2.9 2.9h-12.5c-1.6 0-2.9-1.3-2.9-2.9v-.6h18.4v.6zm25-14.6v5.5h-68.3v-6.4-2.2-35h40.3 27.9v34.9 2.2.6.4zm-17.7-13.9c-.6-1.3 0-2.8 1.3-3.4s2.8 0 3.4 1.3 0 2.8-1.3 3.4c-.2.1-.5.2-.7.2-1.2.1-2.3-.5-2.7-1.5zm6.4 10.7c-.2 1.1-1.1 2-2.2 2.2-.2 0-.5 0-.7 0-1.4-.2-2.4-1.5-2.1-2.9.2-1.4 1.5-2.4 2.9-2.1 1.4.1 2.3 1.4 2.1 2.8zm-10.1-23c-1.1-.7-2.6-.5-3.4.6l-9.7 12.8c-1.9.1-3.7 1.2-4.8 2.9-1.9 2.9-1 6.8 1.9 8.7s6.8 1 8.7-1.9c1.1-1.7 1.3-3.8.6-5.6l7.5-14.1c.7-1.2.3-2.7-.8-3.4zm-10.4 21c-.8 1.2-2.3 1.5-3.5.8-1.2-.8-1.5-2.3-.8-3.5.8-1.2 2.3-1.5 3.5-.8 1.2.8 1.5 2.3.8 3.5zm-8-17.5c-1.6.6-3.1 1.3-4.5 2.3s-2.6 2.2-3.6 3.5c-.2.3-.5.7-.7 1l-.2.3v.1l-.1.2-.4.6c-.4.7-.7 1.5-1 2.3-.6 1.6-1 3.3-1.1 5s0 3.4.4 5.1c.4 1.5 1 3 1.7 4.4h-6c-.4-1-.8-2-1.1-3.1-.6-2.2-.8-4.5-.7-6.7.1-2.3.5-4.5 1.3-6.7.4-1.1.8-2.1 1.4-3.2l.4-.7.1-.2.1-.2.2-.4c.3-.5.6-1 .9-1.4 1.3-1.9 3-3.5 4.8-4.9s3.9-2.5 6-3.3c2.2-.8 4.4-1.3 6.7-1.4s4.6.1 6.9.6c.5.1 1 .3 1.5.4-.4.3-.8.7-1.1 1.1l-3.4 4.5c-1.2-.2-2.4-.3-3.6-.3-1.6.3-3.3.6-4.9 1.1z"/></svg></svg>