<svg viewBox="0 0 1202.02 296.13" xmlns="http://www.w3.org/2000/svg"><g fill="#fff"><path d="m.07 247.05c-3-81.89 90.83-161.23 140.85-167.33 12.42-1.52 21 1 23 7.81 0 0 2.56-4.56 4.56-4.65 22.49-1 12.21 13.4 10.3 18.91-4 11.43-18.88 41.73-20 46.06a8.34 8.34 0 0 1 -6.57 5.82c-2.85.42-6.2-3.51-9.68-6.91a8 8 0 0 1 -2.88-5.24c-.6-3.35.07-7.38 2.53-13.11a194.67 194.67 0 0 1 10.71-21.41c2.24-3.85-.07-12-9-10.5-38.72 4.93-123.29 86.62-117.76 145.43 2.16 22.92 11.88 37.37 31 36.27 24-1.37 52.19-51 62.08-52.49 4-.58 13.11-3.76 5.72 6-35.42 46.81-53.68 60.16-81.52 64.22-16.1 2.31-42.01-12.85-43.34-48.88z"/><path d="m517.1 201.82c-3-81.89 90.83-161.23 140.84-167.34 12.43-1.51 21 1 23 7.82 0 0 2.57-4.57 4.57-4.65 22.49-1 12.21 13.4 10.29 18.91-4 11.43-18.88 41.73-20 46.05a8.37 8.37 0 0 1 -6.58 5.83c-2.85.41-6.2-3.51-9.67-6.92a8 8 0 0 1 -2.89-5.24c-.59-3.34.07-7.37 2.54-13.11a192.29 192.29 0 0 1 10.75-21.45c2.23-3.85-.07-12-9-10.5-38.73 4.93-123.3 86.61-117.76 145.43 2.15 22.92 11.87 37.36 31 36.27 24-1.38 52.19-51.06 62.09-52.5 4-.57 13.11-3.75 5.72 6-35.42 46.81-53.69 60.17-81.52 64.22-16.14 2.36-42.06-12.79-43.38-48.82z"/><path d="m220.87 185.38 5.38-5.36a4.42 4.42 0 0 1 2.49 3.18 5.43 5.43 0 0 1 -1.37 4.3 111.74 111.74 0 0 1 -8.43 11.5c-6.08 7.34-11.41 14.38-16.72 20.45-13.92 16-66.57 60.11-68.84 34.21-2-22.91 16.86-64.86 26.86-82.79 6.92-12.41 38.56-64.48 68.25-67.07 8-.7 14.06 6.58 14.63 13.63 2.09 26.07-34.69 58.47-50.39 68.8-19.08 12.56-24.85 14.22-24.85 14.22s-11.88 24.16-11.64 39.15c.23 14.04 55.05-44.12 64.63-54.22zm14.19-66.1c-.53-6-4.42-4.63-6.42-4.46-9 .78-59.08 70.42-58.47 77.39l.08 1c4.99-.44 67.95-38.07 64.81-73.93z"/><path d="m875.7 144.54 10.81-13.25a4.35 4.35 0 0 1 2.49 3.18 5.42 5.42 0 0 1 -1.36 4.3c-1.16 1.49-.53 2-6.61 9.32s-8.27 8.75-14.72 15.34-64.38 55.82-66.65 29.92c-2-22.91 16.86-64.86 26.86-82.79 6.92-12.41 38.56-64.48 68.25-67.07 8-.7 14.06 6.58 14.63 13.63 2.09 26.07-34.69 58.47-50.39 68.8-19.08 12.56-24.85 14.22-24.85 14.22s-11.87 24.17-11.64 39.17c.23 14.03 28.48-7.51 53.18-34.77zm25.64-85.54c-.35-4-2.52-5.8-6.5-5.46-9 .79-59 71.42-58.39 78.39l.08 1c4.99-.46 67.95-38.09 64.81-73.93z"/><path d="m220.54 220.72a10.84 10.84 0 0 0 -1.21 5.38c.13 1.53 1 2.22 2.71 2.08a18.18 18.18 0 0 0 4.91-1.7 581.08 581.08 0 0 0 72.34-55 4.39 4.39 0 0 1 2.19 3.39 5.39 5.39 0 0 1 -1.74 4.16c-1.29 1.38-3.12 3.36-5.49 6s-6.92 7.28-13.63 14.05-13 12.94-18.83 18.51q-23 22-34.35 26.62a31 31 0 0 1 -8.07 1.76q-16.11 1.41-17.61-15.75-.58-6.69 5.65-19.78a179.47 179.47 0 0 1 13.14-23.28q6.91-10.2 9.33-11.47a15.5 15.5 0 0 1 8-3 21.41 21.41 0 0 1 8.51.94 1.9 1.9 0 0 1 1.4 1.57c.06.7-.51 1.8-1.71 3.31s-3 3.85-5.5 7-6.07 8.58-10.81 16.23-7.84 13.94-9.23 18.98zm43-86.82c1.39-.12 2.33.08 2.79.6 2.16 2.2 3.31 4 3.43 5.5a5.87 5.87 0 0 1 -.92 3.87q-1.12 1.68-2.72 3.83a38.89 38.89 0 0 1 -6.64 6.06 19.17 19.17 0 0 1 -10.05 4.35c-2.55-.19-3.94-1.62-4.17-4.27q-.56-6.27 6.46-12.89t11.82-7.05z"/><path d="m390 178.92c-2 .17-3-.79-3.2-2.89l-1.68-11.86v-.17a1.81 1.81 0 0 1 .7-1.54q1.15-1.36 46.55-5.34 31-38.76 36-39.19c1.53-.14 3.31.87 5.32 3s3.07 3.77 3.17 4.89a3.24 3.24 0 0 1 -.43 2.35l-21 26.93 20.31-1.57a6 6 0 0 1 2.66-.86q5.65-.49 11.66 5.51c2.42 2 3.72 4 3.88 5.78s-.09 3-.74 3.64a4.91 4.91 0 0 1 -2 1.23q-45.3 2.7-48.85 3l-27.46 35.5a11 11 0 0 1 -5.45 6.38 21.89 21.89 0 0 1 -9.13 2.91c-5.58.48-8.51-.87-8.79-4.08a6.05 6.05 0 0 1 .77-3.23q24.19-31.84 26.86-35.24-18.19 1.81-26.22 4a7.41 7.41 0 0 1 -2.93.85z"/><path d="m693.05 191.82.5-13.54q0-.63-.36-.6c-.21 0-.57.34-1.08.94-1.64 2.11-3.74 4.72-6.27 7.82s-7 7.36-13.33 12.76-11.6 8.29-15.79 8.66a22.79 22.79 0 0 1 -2.68-.51q-1.6-.39-4.38-3.09c-1.84-1.81-2.92-4.52-3.24-8.15s2-9.41 6.81-17.36a162.64 162.64 0 0 1 17.85-23.69 133 133 0 0 1 24-21q13.41-9.15 23.92-10.06 4-.13 6.77 5.1c1.27-1.51 2.46-2.32 3.58-2.42s2.51.62 4.2 2.16a5.1 5.1 0 0 1 2.63 1.14 4.25 4.25 0 0 1 1.54 3.14c.12 1.39-.73 3-2.53 4.86q-3.92 5.82-9.17 13.24t-7.5 10.66c-1.5 2.17-3 4.59-4.64 7.26q-4 6.88-4.1 10.9 17.57-10.41 51.66-39.85 5.56-4.84 11.56-10.19a4.39 4.39 0 0 1 2.19 3.4 4.54 4.54 0 0 1 -1.36 3.7l-3.75 3.9q-2.22 2.31-8.8 9t-12.69 12.81q-6.11 6.12-14 13.66t-14.15 12.94q-15.11 12.92-19.08 13.26c-2.65.24-4.61-.44-5.87-2s-2.06-4.53-2.44-8.85zm-22.47-5.24c1.67-.15 9-5 17-12.53s27.42-30.51 27.42-30.51c2.73-3.25 2.54-5.29 2.55-5.24s-.09-1-2.08-.82c-6 .52-7.88 1.69-20.05 11.79a141.92 141.92 0 0 0 -21.17 21.93c-5.61 7.31-6.92 12.65-5.75 14.55a1.78 1.78 0 0 0 2.08.83z"/><path d="m888.23 162.31a10.85 10.85 0 0 0 -1.22 5.37c.14 1.54 1 2.23 2.72 2.08a18.05 18.05 0 0 0 4.91-1.69 582.79 582.79 0 0 0 72.34-55 4.36 4.36 0 0 1 2.19 3.39 5.4 5.4 0 0 1 -1.74 4.15q-1.93 2.07-5.49 6t-13.63 14.06q-10.08 10.15-18.83 18.51-23 22-34.35 26.61a30.16 30.16 0 0 1 -8.07 1.76q-16.06 1.35-17.61-15.8-.59-6.69 5.65-19.78a177.8 177.8 0 0 1 13.14-23.29q6.9-10.19 9.33-11.46a15.38 15.38 0 0 1 8-3 21.25 21.25 0 0 1 8.51.94 1.88 1.88 0 0 1 1.4 1.56c.06.7-.51 1.8-1.71 3.31s-3 3.85-5.5 7-6.07 8.58-10.81 16.23-7.84 14.01-9.23 19.05zm43-86.82q2.09-.18 2.79.6 3.24 3.3 3.43 5.49a5.89 5.89 0 0 1 -.92 3.88q-1.12 1.68-2.72 3.82a39.29 39.29 0 0 1 -6.64 6.06 19.18 19.18 0 0 1 -10.06 4.36q-3.81-.3-4.16-4.27-.56-6.29 6.46-12.9t11.82-7.04z"/><path d="m984.22 141.47q5.85-.51 17.68-8.71a206.87 206.87 0 0 0 20.62-16.14l8.77-8.15a4.39 4.39 0 0 1 2.19 3.39 4.92 4.92 0 0 1 -1.55 3.93q-31.71 35-49.5 36.59a26.07 26.07 0 0 1 -3.8-.09q-21.24 29.47-38.19 31-11.45-.69-14.92-6.71a16.79 16.79 0 0 1 -2.37-7.8q-1.2-13.81 13-34.34a93.87 93.87 0 0 1 37.49-31.64 4.56 4.56 0 0 1 3.22.67 3.69 3.69 0 0 0 2 .88 3.48 3.48 0 0 0 2.12-1 6.85 6.85 0 0 1 3.57-1.36c1.53-.21 3.21.53 5 2.19a8.34 8.34 0 0 1 3.93 6.4q1.08 11.65-9.26 30.89zm-43.49 28.26q6.71-.58 15.76-10.23t9.19-13q-2.68-1.86-6-7.16c-2.21-3.53-3.38-5.3-3.52-5.28a71 71 0 0 0 -10.28 15q-6.78 14.09-6.34 19.11c.1 1.09.46 1.62 1.19 1.56zm40.71-55.21q-2.1.18-8.12 7.24t-5.8 9.58a6.51 6.51 0 0 0 1.48 2.4c.94 1.18 1.63 1.75 2 1.72q3.56-.32 7.31-9.29t3.69-10.33q-.14-1.35-.56-1.32z"/><path d="m313 203.2q5.86-.51 17.69-8.71a206.67 206.67 0 0 0 20.61-16.14l8.78-8.15a4.39 4.39 0 0 1 2.19 3.4 5 5 0 0 1 -1.55 3.93q-31.72 35-49.5 36.58a26.06 26.06 0 0 1 -3.8-.09q-21.25 29.47-38.19 31-11.44-.69-14.92-6.71a16.79 16.79 0 0 1 -2.37-7.8q-1.22-13.82 13-34.34a94 94 0 0 1 37.5-31.64 4.57 4.57 0 0 1 3.22.67 3.66 3.66 0 0 0 2 .88 3.45 3.45 0 0 0 2.12-1 6.94 6.94 0 0 1 3.57-1.36c1.53-.21 3.21.53 5 2.19a8.36 8.36 0 0 1 3.93 6.4q1.09 11.69-9.28 30.89zm-43.48 28.26q6.69-.59 15.76-10.23t9.19-13q-2.7-1.87-6-7.17a44.16 44.16 0 0 0 -3.52-5.28 71 71 0 0 0 -10.28 15q-6.78 14.08-6.34 19.11c.14 1.11.53 1.63 1.23 1.57zm40.7-55.21q-2.08.18-8.11 7.25t-5.8 9.57a6.43 6.43 0 0 0 1.47 2.4c.95 1.18 1.63 1.75 2.05 1.72q3.56-.31 7.3-9.29t3.63-10.33q-.08-1.35-.5-1.32z"/><path d="m1065.69 72.79c1.53-.14 3.31.87 5.32 3s3.07 3.77 3.17 4.89a3.18 3.18 0 0 1 -.43 2.35q-13.34 13.81-25.72 28.82t-18.22 23.15l-5.62 8.08c-1 1.22-1.51 2-1.47 2.45s.19.62.47.59.61-.26 1-.72l1.75-1.63q31.63-33.54 50.67-35.21a8 8 0 0 1 4.74 1.06q7.62 5.25 8.27 12.67t-8.91 19.85a104.26 104.26 0 0 1 -24.28 22.47q-14.72 10-25.07 10.94t-14.18-4.24l-2.6-3.14a.84.84 0 0 0 -.64-.16q-4.61.4-27.88 31.95t-29.44 45.37q-.51 3.84-3 4.06a3.59 3.59 0 0 1 -2.37-.64l-10.06-6.49c-.58-.24-.91-.84-1-1.81q-.23-2.52 28.1-43.89t59.71-82.32q31.41-40.9 37.69-41.45zm-45.41 92.93q6.9-.6 20.32-9.89a171.33 171.33 0 0 0 23.78-19.69q10.36-10.39 10-14.16a.56.56 0 0 0 -.68-.57q-4.6.41-18.54 11t-25.65 21.22q-11.71 10.62-11.65 11.45c.14.56.88.77 2.42.64z"/><path d="m1105.25 168.4q-16.11 1.41-17.83-18.25-1.08-12.35 8.48-27.2a93.59 93.59 0 0 1 23.42-25q13.88-10.17 25.17-11.16a13.56 13.56 0 0 1 9.65 3.16q4.63 3.6 5 7.37.6 6.9-8.47 16.44a94.55 94.55 0 0 1 -19.38 15.82q-10.3 6.28-13.76 6.58a5.46 5.46 0 0 1 -5.4-2.69 3.74 3.74 0 0 0 -2.36-.42c-1 .08-2.42 2.07-4.32 6s-2.76 7-2.56 9.29 1.16 3.66 2.88 4.07q15.9-1.4 33.71-12.33t48.6-37.24q2.15-1.87 6.57-5.64t5.19-4.46a4.43 4.43 0 0 1 2.2 3.4 5 5 0 0 1 -1.56 3.93 299.64 299.64 0 0 1 -25 25.8 271.89 271.89 0 0 1 -36 27.92q-20.63 13.43-34.23 14.61zm38.75-70.84q-5.43.48-17.43 12.8t-11.77 14.84c0 .28.25.4.67.37q4.59-.41 17.41-11.86t12.42-15.21c-.06-.7-.51-1.01-1.3-.94z"/><path d="m873.89 9.18c-.47-4-3.4-9.33-9.83-9.18-41.57 1-77.15 70.92-86.26 87.18-1.55 2.76-3.27 6-5.08 9.49-10-3.2-23.11-10.74-27.68-23.32-2.13-5.87-3.8-7.52-9-3.84s6.1 17.32 16.07 24.14c7.42 5.08 13.12 7.92 17.4 9.48-13.16 26.8-29.27 67.07-27.14 91.48 2.95 33.91 41-7.2 49.53-15.84s7.64-7.13 15.64-16.76 8.45-8.8 8.12-10.6-2.32-2.11-4.17-3.08l-2.41 3c-32.08 34.93-45 48.11-46.29 33.16-1.79-19.49 25.13-79.49 25.13-79.49 22.74-4 89.76-64 85.97-95.82zm-13.89 2.22c4.94-.82 5.25 2.55 5.51 5.54 1.77 19.92-59.51 76.48-74.51 77.79-.66-7.97 56.17-81.2 69-83.33z"/></g></svg>