<svg id="Layer_1" data-name="Layer 1" xmlns="http://www.w3.org/2000/svg" viewBox="0 0 57.48 59.97"><defs><style>.cls-1{fill:#fff;}</style></defs><title>Artboard 1 copy 2</title><path class="cls-1" d="M28.51,57.8a4.26,4.26,0,0,1-2.16-.51l-6.86-4.06c-.68-.42-.76-.72-.25-.89a15.94,15.94,0,0,0,3.17-1.52q.14-.26.51.12L28.26,54q.38.25.63,0L49.6,42.05a.49.49,0,0,0,.38-.51v-24c0-.17-.12-.34-.38-.51L28.89,5.08a.76.76,0,0,0-.63,0L7.55,17c-.26.17-.38.34-.38.51v24a.49.49,0,0,0,.38.51l5.72,3.3c1.52.68,2.73.76,3.62.26a2.47,2.47,0,0,0,1.33-2.29V19.69c0-.42.17-.64.51-.64H21.4a.56.56,0,0,1,.63.64V43.32q0,6.36-6.1,6.35a11.29,11.29,0,0,1-4.82-1.27l-5.47-3a4,4,0,0,1-2.16-3.81v-24a3.89,3.89,0,0,1,2.16-3.69L26.35,1.78a4.2,4.2,0,0,1,4.45,0L51.51,13.84a3.89,3.89,0,0,1,2.16,3.69v24a4,4,0,0,1-2.16,3.81L30.8,57.29a4.31,4.31,0,0,1-2.16.51ZM35,41.41q-11.05,0-11-7.75c0-.33.21-.5.63-.5h2.67c.42,0,.64.17.64.5a4,4,0,0,0,1.71,3.12q1.45.94,5.4.95,6.23,0,6.23-3.3a2,2,0,0,0-.39-1.27,4.39,4.39,0,0,0-2.09-1,25.3,25.3,0,0,0-4.89-.76Q29.14,31,26.92,29.6A5,5,0,0,1,24.7,25q0-6.6,9.4-6.6,9.91,0,10.42,7.24a.73.73,0,0,1-.13.51.75.75,0,0,1-.51.13H41.22c-.43,0-.64-.17-.64-.51a4.24,4.24,0,0,0-1.84-2.92,10,10,0,0,0-4.64-.77c-3.56,0-5.33.94-5.33,2.8A1.72,1.72,0,0,0,30,26.55a30.81,30.81,0,0,0,5.91,1.14q5.09.76,7.24,2.1a4.88,4.88,0,0,1,2.16,4.51Q45.28,41.41,35,41.41Z"/></svg>