<svg height="100" viewBox="0 0 100 100" width="100" xmlns="http://www.w3.org/2000/svg"><svg enable-background="new 0 0 24 24" transform="matrix(.69 0 0 .69 15.5 15.5)" version="1.1" viewBox="0 0 24 24" xmlns="http://www.w3.org/2000/svg" xmlns:xlink="http://www.w3.org/1999/xlink"><path fill="#2bbbae" d="m22.999 2.474c-.007-.135-.069-.261-.171-.35-.102-.088-.236-.137-.37-.121l-7.621.635c-.353-.953-1.263-1.638-2.337-1.638-1.22 0-2.235.879-2.453 2.036l-.192.016-6.273-1.045c-.269-.05-.527.136-.574.406l-3 17c-.023.131.007.267.084.375s.194.183.326.205l4.486.748.096 1.785c.008.138.071.266.176.354.091.078.206.12.323.12.019 0 .037-.001.055-.003l7.732-.859 5.131.855c.028.004.055.007.083.007.238 0 .449-.171.492-.413l.195-1.104 4.368-.485c.264-.029.459-.26.444-.525zm-10.499-.472c.543 0 1.015.293 1.278.725l-2.67.223c.221-.554.76-.948 1.392-.948zm5.883 18.289-.289 1.637-17.014-2.837 2.826-16.014 10.094 1.682v3.743c0 .827-.673 1.5-1.5 1.5s-1.5-.673-1.5-1.5v-2c0-.276-.224-.5-.5-.5s-.5.224-.5.5v2c0 1.378 1.122 2.5 2.5 2.5s2.5-1.122 2.5-2.5v-3.576l5.92.987z"/></svg></svg>