<svg id="Layer_1" data-name="Layer 1" xmlns="http://www.w3.org/2000/svg" viewBox="0 0 57.48 59.97"><defs><style>.cls-1{fill:#fff}</style></defs><title>Artboard 1</title><path class="cls-1" d="M3 44.05l5 .3-1 5.13-4.68-.6zm7.84-10.71L6.28 32l1.51-4.08 4.38 1.66zM8.09 56.87c-.5-2.71-.2-6.79.91-12.21a76.8 76.8 0 0 1 8.14-21.27q7.7-13.87 20.52-15.08a17.85 17.85 0 0 1 8.59 1.28 21.24 21.24 0 0 1 6.49 3.69l2.26 2-1.21 1.62c-.2-.2-.5-.47-.9-.83a10 10 0 0 0-2.72-1.28 9.73 9.73 0 0 0-4.52-.45q-5 .6-10 5.2t-6.11 12.6A40.89 40.89 0 0 0 30 43.6a51.28 51.28 0 0 0 2.42 9.65l1.35 3.62zm9.05-36.5l-3.47-2.26 2.72-3 3.32 2.27zm6.79-11.91L27.1 6.8l2.41 2.56-3.17 2zm6.64 28.35l3.77 1.81.15 3.32-4.07-1.81zm1.35-8.9l2.87 2.27-.79 3.16-3.32-2.86zm-.15 20.82H36l1.81 3.77-5.13-.3zm4.08-28.81l2 2.87-1.25 2.11-2.72-3.17zm-.61-15.13l4.23.15.3 2.56-3.92.15zm4.53 12.11L42 15.7l1 2.11-1.81 1.51zm8.48-1.81l2.75.61v1.2l-2.71-.3zm.42-6.78l3.16 2.26-.6.9L48.51 10z"/></svg>