<svg width="35" height="34" viewBox="0 0 35 34" xmlns="http://www.w3.org/2000/svg"><title>Ruby</title><desc>Created with Sketch.</desc><g fill="none"><path d="M33.587 7.444l-.124-.019c-2.359-1.861-5.049-2.152-7.883-1.161-5.003 1.75-7.971 5.109-9.057 9.787-.776 3.341-.383 6.679.368 9.989.527 2.321 1.287 4.581 2.255 6.785l.109.303h-18.152c-.026-.234-.065-.47-.075-.706-.129-2.907.351-5.755 1.091-8.57 1.447-5.5 4.029-10.564 7.582-15.204 2.1-2.742 4.926-4.756 8.468-5.881 3.849-1.223 7.607-1.055 11.279.569 1.804.798 3.959 2.14 4.887 3.088l-.75 1.019z" fill="#fff"/><path d="M3.272 17.629l-2.701-1.093.855-3.055 2.647 1.302-.8 2.846" fill="#fff"/><path d="M16.912 26.963c.782 0 1.514-.008 2.246.01.094.002.233.107.273.22.329.924.639 1.862.983 2.88-.974-.079-1.876-.147-2.778-.236-.075-.007-.186-.136-.208-.239-.178-.854-.338-1.715-.516-2.634" fill="#fff"/><path d="M7.239 11.407l-2-1.811 1.553-2.337 1.949 1.732-1.502 2.416" fill="#fff"/><path d="M15.991 23.577c-.113-.047-.25-.203-.246-.304.03-.809.092-1.617.151-2.534 1.071.526 2.042.995 3 1.485.109.055.201.223.211.344.059.731.092 1.464.14 2.319-1.163-.465-2.214-.879-3.256-1.31z" fill="#fff"/><path d="M12.243 2.571l2.025-1.534 1.476 2.428-2.025 1.72-1.477-2.614" fill="#fff"/><path d="M18.639 19.703l-2.894-2.184 1.104-1.964c.789.53 1.549 1.029 2.29 1.55.088.062.127.246.1.357-.179.723-.382 1.441-.599 2.241" fill="#fff"/><path d="M23.915 1.037h-3.056l-.445-1.037c1.033.025 2.016.045 2.998.077.089.003.224.077.243.127.1.263.169.529.261.833" fill="#fff"/><path d="M21.802 13.481l-2.556-2.596 1.848-1.552c.559.775 1.092 1.493 1.594 2.228.077.112.078.331.011.452-.259.471-.559.923-.897 1.467" fill="#fff"/><path d="M25.342 10.37l-1.427-2.409 3.066-.702c.818 1.509.596 1.934-1.64 3.111" fill="#fff"/><path d="M31.021 3.111l3.399 2.251-.608.86c-.903-.44-1.798-.843-2.645-1.315-.175-.098-.229-.45-.244-.69-.021-.316.051-.637.099-1.106" fill="#fff"/><path d="M30.919 8.296l-1.167-.166v-.871l1.167.34v.697" fill="#fff"/></g></svg>