<svg id="Layer_1" data-name="Layer 1" xmlns="http://www.w3.org/2000/svg" viewBox="0 0 57.48 59.97"><defs><style>.cls-1{fill:#fff;}</style></defs><title>Artboard 1</title><path class="cls-1" d="M3,44.05l5,.3L7,49.48l-4.68-.6Zm7.84-10.71L6.28,32l1.51-4.08,4.38,1.66ZM8.09,56.87c-.5-2.71-.2-6.79.91-12.21a76.8,76.8,0,0,1,8.14-21.27Q24.84,9.52,37.66,8.31a17.85,17.85,0,0,1,8.59,1.28,21.24,21.24,0,0,1,6.49,3.69l2.26,2L53.79,16.9c-.2-.2-.5-.47-.9-.83a10,10,0,0,0-2.72-1.28,9.73,9.73,0,0,0-4.52-.45q-5,.6-10,5.2t-6.11,12.6A40.89,40.89,0,0,0,30,43.6a51.28,51.28,0,0,0,2.42,9.65l1.35,3.62Zm9.05-36.5-3.47-2.26,2.72-3,3.32,2.27ZM23.93,8.46,27.1,6.8l2.41,2.56-3.17,2Zm6.64,28.35,3.77,1.81.15,3.32-4.07-1.81Zm1.35-8.9,2.87,2.27L34,33.34l-3.32-2.86Zm-.15,20.82H36l1.81,3.77-5.13-.3Zm4.08-28.81,2,2.87L36.6,24.9l-2.72-3.17ZM35.24,4.79l4.23.15.3,2.56-3.92.15ZM39.77,16.9,42,15.7l1,2.11-1.81,1.51Zm8.48-1.81L51,15.7v1.2l-2.71-.3Zm.42-6.78,3.16,2.26-.6.9L48.51,10Z"/></svg>