<svg viewBox="0 0 57.48 59.97" xmlns="http://www.w3.org/2000/svg"><path d="m47.3 20.79a23.94 23.94 0 0 1 7.52 4.07c1.85 1.59 2.73 3.28 2.66 5.09s-1 3.55-2.94 5.21a23 23 0 0 1 -7.92 4.07 2 2 0 0 0 -.57.11 5.73 5.73 0 0 0 -.56.23c.15.75.26 1.28.33 1.58q2.26 11-2.71 13.81-4.76 2.59-12.67-4.19l-.8-.73-.79-.74c-.07.08-.26.25-.56.51a4.81 4.81 0 0 1 -.68.51q-8.38 7.24-13.24 4.52t-2.83-13a3.77 3.77 0 0 1 .23-1c.15-.45.26-.79.34-1-.23-.08-.51-.19-.85-.34a2.21 2.21 0 0 0 -.74-.23 21.63 21.63 0 0 1 -7.63-4.17c-1.89-1.7-2.89-3.41-2.89-5.1s.91-3.42 2.72-5a24.25 24.25 0 0 1 7.35-4l1.07-.34 1.08-.33c-.3-.91-.49-1.55-.57-1.93q-2-10.74 2.72-13.35 5-2.82 13.46 4.75a6.52 6.52 0 0 1 1 .79 15.18 15.18 0 0 1 1.47-1.24q8.28-6.89 12.81-4.35 2.37 1.25 3 5.09a23 23 0 0 1 -.4 8.91 6.15 6.15 0 0 1 -.22 1.24 4.64 4.64 0 0 0 .9.28 5.79 5.79 0 0 1 .91.27zm-34.4 16.29a45.92 45.92 0 0 1 2.83-7.24 45.92 45.92 0 0 1 -2.83-7.24 14.89 14.89 0 0 0 -1.92.56 21 21 0 0 0 -6.11 3.17c-1.51 1.21-2.27 2.34-2.27 3.4s.76 2.11 2.27 3.39a21.85 21.85 0 0 0 6.56 3.51zm13.24 11.2 1.13-1.13a44.24 44.24 0 0 1 -5-6.11 64.94 64.94 0 0 1 -7.69-1c-.16.91-.27 1.55-.34 1.93q-1.59 8.47 1.58 10.52c.75.45 2.07.38 4-.23a16.87 16.87 0 0 0 6.32-3.98zm-10.41-41.28c-.91.61-1.51 1.85-1.81 3.74a20.59 20.59 0 0 0 .34 7 4.49 4.49 0 0 0 .11.91 5.75 5.75 0 0 0 .23.9 61.2 61.2 0 0 1 7.58-1.13q4-5.09 5-6.11l-.8-.79a23.18 23.18 0 0 0 -6.22-4.19q-2.96-1.25-4.43-.33zm1.36 25.69c-.23.53-.55 1.34-1 2.43s-.73 1.94-1 2.55c2.26.45 4 .75 5.32.9a17.45 17.45 0 0 1 -1-1.47c-.42-.68-.7-1.17-.85-1.47a12.71 12.71 0 0 0 -.79-1.53c-.27-.66-.53-1.1-.68-1.43zm0-5.77c.07-.15.6-1.1 1.58-2.83.15-.3.43-.79.85-1.47a17.45 17.45 0 0 1 1-1.47c-.68.07-2.42.38-5.21.9.19.74.79 2.36 1.78 4.85zm1.35 2.83a18.66 18.66 0 0 0 1.3 2.54 21.77 21.77 0 0 1 1.19 2.21 37.24 37.24 0 0 0 2.72 4.41c1.13.08 2.86.11 5.2.11 1.28 0 3.06-.07 5.32-.22a38.94 38.94 0 0 0 2.72-4.41c1.65-3 2.49-4.57 2.49-4.64-.23-.38-.65-1.1-1.25-2.15s-1.06-1.89-1.36-2.49a37.79 37.79 0 0 0 -2.71-4.42c-2.27-.15-4-.22-5.21-.22s-2.94.07-5.2.22a38.07 38.07 0 0 0 -2.72 4.42c-1.66 3-2.49 4.54-2.49 4.62zm14-3.74a5.19 5.19 0 0 1 0 7.24 5.19 5.19 0 0 1 -7.24 0 5.09 5.09 0 0 1 3.62-8.71 4.92 4.92 0 0 1 3.65 1.46zm-3.59-12.01q-2.27 2.72-3.39 4.19 1.13-.12 3.39-.12c.38 0 .94 0 1.7.06s1.32.06 1.7.06a34.29 34.29 0 0 0 -3.4-4.19zm.15 31.57q1.13-1.24 3.39-4.19c-1.66.15-2.83.23-3.51.23a16.34 16.34 0 0 1 -1.75-.12c-.72-.07-1.27-.11-1.64-.11.15.15.66.77 1.53 1.87a28.66 28.66 0 0 0 1.98 2.32zm14.79 3.43a17.65 17.65 0 0 0 -.34-7.58l-.34-1.42a43.51 43.51 0 0 1 -7.7 1.13 64.53 64.53 0 0 1 -4.86 6.23 13.88 13.88 0 0 0 1.45 1.26q6.9 5.77 9.84 4a5.25 5.25 0 0 0 1.95-3.62zm-11.79-37.83c-.75.6-1.21 1-1.36 1.13a49.2 49.2 0 0 1 4.87 6.11 50.7 50.7 0 0 1 7.69 1.13 1.71 1.71 0 0 1 .12-.56 2.1 2.1 0 0 0 .11-.46 22.31 22.31 0 0 0 .47-7.52q-.45-3.1-1.9-4-3.08-1.94-10 4.17zm8.6 15.73q1.82-4.75 1.81-4.87a34.45 34.45 0 0 0 -5.09-1 10.87 10.87 0 0 0 .9 1.64c.46.72.72 1.16.8 1.31s.41.77.79 1.41a12.71 12.71 0 0 1 .81 1.51zm-1.6 8.71a3 3 0 0 1 -.4.74 4.68 4.68 0 0 0 -.45.73l-.4.79a6.17 6.17 0 0 1 -.45.79l5.32-1a19.05 19.05 0 0 0 -1.08-2.78c-.56-1.24-.89-2-1-2.2l-.74 1.47a11 11 0 0 1 -.8 1.46zm6.9 1.13a21.07 21.07 0 0 0 6.67-3.34q2.49-2 2.49-3.67c0-1.06-.77-2.21-2.32-3.45a20.83 20.83 0 0 0 -6.16-3.23 5.1 5.1 0 0 1 -.74-.17l-1-.28a65.78 65.78 0 0 1 -2.83 7.13 45.54 45.54 0 0 1 2.99 7.27 3.82 3.82 0 0 0 .94-.26z" fill="#fff"/></svg>