<svg height="100" viewBox="0 0 100 100" width="100" xmlns="http://www.w3.org/2000/svg"><svg transform="matrix(.69 0 0 .69 15.5 15.5)" viewBox="0 0 64 64" xmlns="http://www.w3.org/2000/svg"><path fill="#2bbbae" d="m16 39a1 1 0 0 0 -1 1v5a1 1 0 0 0 2 0v-5a1 1 0 0 0 -1-1z"/><path fill="#2bbbae" d="m61 13h-3v-10a1 1 0 0 0 -1-1h-6a1 1 0 0 0 -1 1v10h-47a1 1 0 0 0 -1 1v36a1 1 0 0 0 1 1h5v3a8 8 0 0 0 16 0v-3h37a1 1 0 0 0 1-1v-36a1 1 0 0 0 -1-1zm-5 15h-4v-20h4zm-.517 2-1.483 3.461-1.483-3.461zm-3.483-26h4v2h-4zm-44.414 11-3.586 3.586v-3.586zm1.414 1.414v3.586h-3.586zm13 37.586a6 6 0 0 1 -12 0v-12a6 6 0 0 1 12 0zm38-5h-36v-7a8 8 0 0 0 -16 0v7h-4v-27h6a1 1 0 0 0 1-1v-6h39v14c0 .014.008.026.008.041a1 1 0 0 0 .068.336v.015l3 7a1 1 0 0 0 1.838 0l3-7v-.015a1 1 0 0 0 .068-.336c0-.015.008-.027.008-.041v-14h2z"/><path fill="#2bbbae" d="m57 45h-2a1 1 0 0 0 0 2h2a1 1 0 0 0 0-2z"/><path d="m51 45h-2a1 1 0 0 0 0 2h2a1 1 0 0 0 0-2z"/><path fill="#2bbbae" d="m42.774 20.367a1 1 0 0 0 -1.407-.141l-10.336 8.457-9.362-8.426a1 1 0 0 0 -1.238-.079l-13 9a1 1 0 1 0 1.138 1.644l12.35-8.55 9.412 8.471a1 1 0 0 0 1.3.031l11-9a1 1 0 0 0 .143-1.407z"/><path fill="#2bbbae" d="m39.848 33.47a1.039 1.039 0 0 0 -1.7 0l-5 8a1 1 0 0 0 .852 1.53h10a1 1 0 0 0 .848-1.53zm-4.048 7.53 3.2-5.113 3.2 5.113z"/></svg></svg>