<svg height="85" viewBox="0 0 74 85" width="74" xmlns="http://www.w3.org/2000/svg"><g fill="#2bbbae" fill-rule="evenodd"><path d="m66.1595238 46.3958333h-5.4619048v7.96875h-47.395238v-28.7760416h32.7714285v-5.4895834h-34.3571428c-2.11428575 0-3.87619051 1.7708334-3.87619051 3.8958334v35.859375h58.31904761z"/><path d="m73.647619 79.0677083-7.4880952-16.46875h-58.31904761l-7.48809524 16.46875c-1.14523809 2.5677084.70476191 5.4895834 3.52380953 5.4895834h66.24761902c2.8190476 0 4.6690476-2.921875 3.5238095-5.4895834zm-28.2785714-.53125h-16.7380952c-.5285714 0-.8809524-.4427083-.7928572-.9739583l.9690477-3.71875c.0880952-.3541667.4404761-.6197917.7928571-.6197917h14.8c.352381 0 .7047619.265625.7928571.6197917l.9690477 3.71875c.0880952.53125-.2642858.9739583-.7928572.9739583zm7.0476191-35.0625h17.3547619c1.85 0 3.347619-1.5052083 3.347619-3.3645833v-36.30208333c0-1.859375-1.497619-3.36458334-3.347619-3.36458334h-17.3547619c-1.85 0-3.3476191 1.50520834-3.3476191 3.36458334v36.30208333c0 1.859375 1.4976191 3.3645833 3.3476191 3.3645833zm8.6333333-2.4791666c-1.2333333 0-2.202381-.9739584-2.202381-2.2135417s.9690477-2.2135417 2.202381-2.2135417 2.202381.9739584 2.202381 2.2135417-1.0571429 2.2135417-2.202381 2.2135417zm-2.8190476-38.0729167h5.4619047c.4404762 0 .7928572.35416667.7928572.796875s-.352381.796875-.7928572.796875h-5.4619047c-.4404762 0-.7928572-.35416667-.7928572-.796875.0880953-.44270833.4404762-.796875.7928572-.796875zm-5.6380953 3.984375h16.8261905v27.2708333h-16.8261905z" fill-rule="nonzero"/><g font-family="ChalkboardSE-Bold, Chalkboard SE" font-size="16" font-weight="bold"><text><tspan x="18" y="45">&lt;</tspan></text><text><tspan x="35" y="45">&gt;</tspan></text><text><tspan x="25.288" y="47">/</tspan></text></g></g></svg>