<svg viewBox="0 0 57.48 59.97" xmlns="http://www.w3.org/2000/svg"><path d="m28.51 57.8a4.26 4.26 0 0 1 -2.16-.51l-6.86-4.06c-.68-.42-.76-.72-.25-.89a15.94 15.94 0 0 0 3.17-1.52q.14-.26.51.12l5.34 3.06q.38.25.63 0l20.71-11.95a.49.49 0 0 0 .38-.51v-24c0-.17-.12-.34-.38-.51l-20.71-11.95a.76.76 0 0 0 -.63 0l-20.71 11.92c-.26.17-.38.34-.38.51v24a.49.49 0 0 0 .38.51l5.72 3.3c1.52.68 2.73.76 3.62.26a2.47 2.47 0 0 0 1.33-2.29v-23.6c0-.42.17-.64.51-.64h2.67a.56.56 0 0 1 .63.64v23.63q0 6.36-6.1 6.35a11.29 11.29 0 0 1 -4.82-1.27l-5.47-3a4 4 0 0 1 -2.16-3.81v-24a3.89 3.89 0 0 1 2.16-3.69l20.71-12.12a4.2 4.2 0 0 1 4.45 0l20.71 12.06a3.89 3.89 0 0 1 2.16 3.69v24a4 4 0 0 1 -2.16 3.81l-20.71 11.95a4.31 4.31 0 0 1 -2.16.51zm6.49-16.39q-11.05 0-11-7.75c0-.33.21-.5.63-.5h2.67c.42 0 .64.17.64.5a4 4 0 0 0 1.71 3.12q1.45.94 5.4.95 6.23 0 6.23-3.3a2 2 0 0 0 -.39-1.27 4.39 4.39 0 0 0 -2.09-1 25.3 25.3 0 0 0 -4.89-.76q-4.77-.4-6.99-1.8a5 5 0 0 1 -2.22-4.6q0-6.6 9.4-6.6 9.91 0 10.42 7.24a.73.73 0 0 1 -.13.51.75.75 0 0 1 -.51.13h-2.66c-.43 0-.64-.17-.64-.51a4.24 4.24 0 0 0 -1.84-2.92 10 10 0 0 0 -4.64-.77c-3.56 0-5.33.94-5.33 2.8a1.72 1.72 0 0 0 1.23 1.67 30.81 30.81 0 0 0 5.91 1.14q5.09.76 7.24 2.1a4.88 4.88 0 0 1 2.16 4.51q-.03 7.11-10.31 7.11z" fill="#fff"/></svg>